<?xml version="1.0" encoding="utf-8"?>
<!-- Generator: Adobe Illustrator 16.0.0, SVG Export Plug-In . SVG Version: 6.00 Build 0)  -->
<!DOCTYPE svg PUBLIC "-//W3C//DTD SVG 1.1//EN" "http://www.w3.org/Graphics/SVG/1.1/DTD/svg11.dtd">
<svg version="1.1" id="emoji" xmlns="http://www.w3.org/2000/svg" xmlns:xlink="http://www.w3.org/1999/xlink" x="0px" y="0px"
	 width="599.5px" height="599.5px" viewBox="0 0 599.5 599.5" enable-background="new 0 0 599.5 599.5" xml:space="preserve">
<g id="_xD83D__xDC34__14_">
	<path fill="none" stroke="#000000" stroke-width="24" stroke-linecap="round" stroke-linejoin="round" stroke-miterlimit="10" d="
		M629,503.688"/>
	<path fill="none" stroke="#000000" stroke-width="24" stroke-linecap="round" stroke-linejoin="round" stroke-miterlimit="10" d="
		M558.844,314.262"/>
	<path fill="none" stroke="#000000" stroke-width="24" stroke-linecap="round" stroke-linejoin="round" stroke-miterlimit="10" d="
		M254.829,362.205c0,0,99.391,79.512,0,219.826"/>
	<path fill="none" stroke="#000000" stroke-width="24" stroke-linecap="round" stroke-linejoin="round" stroke-miterlimit="10" d="
		M376.973,113.796c59.148,28.579,113.779,106.293,120.981,234.442c1.162,20.674,3.792,43.6,8.158,67.139
		c11.389,61.393,34.585,126.963,74.342,167.654"/>
	<path fill="none" stroke="#000000" stroke-width="24" stroke-linecap="round" stroke-linejoin="round" stroke-miterlimit="10" d="
		M286.399,233.581c5.847,98.222-108.744,113.421-140.313,120.437c-3.509,1.17-7.017,3.51-10.523,5.848l-24.555,25.725
		c-3.509,3.51-9.354,5.848-15.201,5.848H54.88c-14.032,0-26.895-9.354-31.571-22.217l-5.847-18.709
		c-3.51-9.354-2.34-18.707,3.508-26.895L123.866,152.9l54.957-54.955l-24.556-80.683c0,0,91.204-8.186,98.22,61.974
		c0,0,30.171,3.625,55.467,10.977"/>
	<path fill="none" stroke="#000000" stroke-width="24" stroke-linecap="round" stroke-linejoin="round" stroke-miterlimit="10" d="
		M471.147,269.83"/>
	<path fill="none" stroke="#000000" stroke-width="24" stroke-linecap="round" stroke-linejoin="round" stroke-miterlimit="10" d="
		M237.29,35.971"/>
	<path fill="none" stroke="#000000" stroke-width="24" stroke-linecap="round" stroke-linejoin="round" stroke-miterlimit="10" d="
		M530.782,560.982"/>
	<path fill="none" stroke="#000000" stroke-width="24" stroke-linecap="round" stroke-linejoin="round" stroke-miterlimit="10" d="
		M459.455,142.375"/>
	<circle cx="161.286" cy="210.196" r="23.386"/>
</g>
<path fill="none" stroke="#000000" stroke-width="23" stroke-linecap="round" stroke-linejoin="round" stroke-miterlimit="10" d="
	M307.954,90.212c0,0,55.428-28.672,69.687-26.038C507.8,88.212,550.486,182.643,545.8,343.547
	c-2,68.666,18.416,88.771,39.334,105.332"/>
<path fill="none" stroke="#000000" stroke-width="23" stroke-linecap="round" stroke-linejoin="round" stroke-miterlimit="10" d="
	M254.829,582.031c0,0,167.091-55.791,266.626-8.791"/>
</svg>
