<?xml version="1.0" encoding="utf-8"?>
<!-- Generator: Adobe Illustrator 16.0.0, SVG Export Plug-In . SVG Version: 6.00 Build 0)  -->
<!DOCTYPE svg PUBLIC "-//W3C//DTD SVG 1.1//EN" "http://www.w3.org/Graphics/SVG/1.1/DTD/svg11.dtd">
<svg version="1.1" xmlns="http://www.w3.org/2000/svg" xmlns:xlink="http://www.w3.org/1999/xlink" x="0px" y="0px"
	 width="1356.973px" height="1356.973px" viewBox="-1064.556 -1403.199 1356.973 1356.973"
	 enable-background="new -1064.556 -1403.199 1356.973 1356.973" xml:space="preserve">
<g id="Background" display="none">
	<rect x="-1064.556" y="-1403.199" display="inline" fill="#9E9797" width="1552" height="1552"/>
</g>
<g id="emoji">
	<polygon fill="#242424" points="-233.069,-214.739 -532.07,-214.739 -532.07,-303.739 -235.069,-304.739 	"/>
	<polygon fill="#242424" points="-288.07,-414.739 -483.07,-414.739 -442.631,-790.739 -321.07,-790.739 	"/>
	<polygon fill="#242424" points="-327.07,-901.739 -445.07,-908.739 -473.351,-1094.739 -288.07,-1093.739 	"/>
	<path d="M-456.048-811.113l-43.537,414.721h15.998h215.031l-42.592-414.721H-456.048z M-430.105-782.313h92.947l36.674,357.12
		h-167.107L-430.105-782.313z"/>
	<path d="M-548.23-321.513v120.96h14.4h313.921v-120.96H-548.23z M-519.431-292.713h270.721v63.359h-270.721V-292.713z"/>
	<path d="M-559.99-177.513v28.8h347.841v-28.8H-559.99z"/>
	<path d="M-499.9-1110.632l45.066,224.64h11.813h129.713l45.068-224.64H-499.9z M-464.755-1081.833h161.369l-33.523,167.04h-94.32
		L-464.755-1081.833z"/>
	<path d="M-463.472-1162.473v28.8h158.805v-28.8H-463.472z"/>
	<path d="M-398.47-1300.713v138.24h28.799v-138.24H-398.47z"/>
	<path d="M-453.191-1245.993v28.8h138.24v-28.8H-453.191z"/>
	<path d="M-510.791-373.354v28.801h253.44v-28.801H-510.791z"/>
	<path d="M-473.351-862.953v28.8h178.561v-28.8H-473.351z"/>
</g>
</svg>
