<?xml version="1.0" encoding="utf-8"?>
<!-- Generator: Adobe Illustrator 16.0.0, SVG Export Plug-In . SVG Version: 6.00 Build 0)  -->
<!DOCTYPE svg PUBLIC "-//W3C//DTD SVG 1.1//EN" "http://www.w3.org/Graphics/SVG/1.1/DTD/svg11.dtd">
<svg version="1.1" id="emoji" xmlns="http://www.w3.org/2000/svg" xmlns:xlink="http://www.w3.org/1999/xlink" x="0px" y="0px"
	 width="630px" height="630px" viewBox="1272.569 -481.199 630 630" enable-background="new 1272.569 -481.199 630 630"
	 xml:space="preserve">
<path d="M1569.514-228.857l-13.611,22.86c0,0-204.895,112.482-105.003,91.253c66.414-14.114,98.753,47.768,105.503,56.268
	c72.322,91.072-7.167,170.248-7.167,170.248s171.415-42.598,246.417-16.998c32.25,11.008,61.75,36.5,61.75,36.5
	s-72.581-138.391-70.167-176.5c1.454-22.948,23.831,48.255,84.667,42.998c5.204-0.45-44-55.333-44-55.333s6.68-44.813-1.323-142.001
	c-5.39-65.455-19.268-93.514-37.354-120.5c-34.963-52.166-129.137-74.833-129.137-74.833l-92.853,46.253L1569.514-228.857z"/>
<path fill="#FFFFFF" d="M1787.235-45.226c1.454-22.948,23.831,48.255,84.667,42.998c5.204-0.45-44-55.333-44-55.333
	s6.68-44.813-1.323-142.001c-5.39-65.455-19.268-93.514-37.354-120.5c-34.963-52.166-129.137-74.833-129.137-74.833l-43.039,16.398
	c0,0,23.396,5.271,46.896,17.771c28.104,14.949,106.869,173.148,106.869,173.148"/>
<g id="_xD83D__xDC34__2_">
	<path fill="none" stroke="#000000" stroke-width="24" stroke-linecap="round" stroke-linejoin="round" stroke-miterlimit="10" d="
		M1912.115,41.25"/>
	<path fill="none" stroke="#000000" stroke-width="24" stroke-linecap="round" stroke-linejoin="round" stroke-miterlimit="10" d="
		M1841.959-148.176"/>
	<path fill="none" stroke="#000000" stroke-width="24" stroke-linecap="round" stroke-linejoin="round" stroke-miterlimit="10" d="
		M1537.944-100.233c0,0,99.391,79.513,0,219.826"/>
	<path fill="none" stroke="#000000" stroke-width="24" stroke-linecap="round" stroke-linejoin="round" stroke-miterlimit="10" d="
		M1660.088-348.642c59.148,28.579,113.779,106.293,120.981,234.442c1.161,20.674,3.792,43.599,8.157,67.138
		c11.389,61.394,34.586,126.963,74.343,167.654"/>
	<path stroke="#000000" stroke-width="24" stroke-linecap="round" stroke-linejoin="round" stroke-miterlimit="10" d="
		M1569.514-228.857c5.848,98.222-108.743,113.421-140.313,120.438c-3.509,1.17-7.017,3.509-10.523,5.848l-24.555,25.725
		c-3.509,3.509-9.354,5.848-15.202,5.848h-40.926c-14.032,0-26.895-9.354-31.571-22.217l-5.847-18.709
		c-3.51-9.354-2.34-18.708,3.508-26.895l102.896-170.718l54.957-54.955l-24.556-80.683c0,0,91.204-8.186,98.22,61.974
		c0,0,30.171,3.625,55.467,10.977"/>
	<path fill="none" stroke="#000000" stroke-width="24" stroke-linecap="round" stroke-linejoin="round" stroke-miterlimit="10" d="
		M1754.262-192.608"/>
	<path fill="none" stroke="#000000" stroke-width="24" stroke-linecap="round" stroke-linejoin="round" stroke-miterlimit="10" d="
		M1520.405-426.467"/>
	<path fill="none" stroke="#000000" stroke-width="24" stroke-linecap="round" stroke-linejoin="round" stroke-miterlimit="10" d="
		M1813.897,98.545"/>
	<path fill="none" stroke="#000000" stroke-width="24" stroke-linecap="round" stroke-linejoin="round" stroke-miterlimit="10" d="
		M1742.57-320.063"/>
	<circle fill="#FFFFFF" cx="1444.401" cy="-252.242" r="23.386"/>
</g>
<path fill="none" stroke="#000000" stroke-width="23" stroke-linecap="round" stroke-linejoin="round" stroke-miterlimit="10" d="
	M1868.248-13.559c-20.917-16.561-41.333-36.667-39.333-105.333c4.687-160.903-38-255.334-168.159-279.373
	c-14.26-2.633-69.687,26.039-69.687,26.039"/>
<path fill="none" stroke="#000000" stroke-width="23" stroke-linecap="round" stroke-linejoin="round" stroke-miterlimit="10" d="
	M1537.944,119.593c0,0,167.091-55.791,266.626-8.791"/>
<path fill="#FFFFFF" d="M1795.652,94.774"/>
<path fill="none" stroke="#FFFFFF" stroke-width="23" stroke-linecap="round" stroke-linejoin="round" stroke-miterlimit="10" d="
	M1591.069-198.422"/>
<path fill="none" stroke="#FFFFFF" stroke-width="23" stroke-linecap="round" stroke-linejoin="round" stroke-miterlimit="10" d="
	M1674.248,17.441"/>
</svg>
