<?xml version="1.0" encoding="utf-8"?>
<!-- Generator: Adobe Illustrator 16.0.0, SVG Export Plug-In . SVG Version: 6.00 Build 0)  -->
<!DOCTYPE svg PUBLIC "-//W3C//DTD SVG 1.1//EN" "http://www.w3.org/Graphics/SVG/1.1/DTD/svg11.dtd">
<svg version="1.1" xmlns="http://www.w3.org/2000/svg" xmlns:xlink="http://www.w3.org/1999/xlink" x="0px" y="0px"
	 width="1356.973px" height="1356.973px" viewBox="-1064.556 -1403.199 1356.973 1356.973"
	 enable-background="new -1064.556 -1403.199 1356.973 1356.973" xml:space="preserve">
<g id="Background" display="none">
	<rect x="-1064.556" y="-1403.199" display="inline" fill="#9E9797" width="1356.973" height="1356.973"/>
</g>
<g id="emoji">
	<polygon fill="#4E4E4E" points="-193.799,-217.535 -567.369,-217.535 -567.369,-306.535 -196.298,-307.535 	"/>
	<polygon fill="#4E4E4E" points="-231.05,-406.059 -531.05,-409.559 -531.05,-478.309 -474.05,-546.059 -341.222,-681.244 
		-347.888,-748.893 -546.555,-664.226 -588.555,-724.713 -386.069,-930.583 -313.888,-893.559 -273.888,-910.893 -171.222,-766.893 
			"/>
	<g transform="translate(0,-952.36216)">
		<path d="M-421.408-13.12l0.633,64.614l-60.457,34.403l-132.973,148.094l63.54,71.326l188.843-80.236v45.045l-181.194,199.396
			c0.177,63.469,0.45,21.035,0.45,84.834l319.106,1l65.527-379.729L-270.817,18.855l-36.605,20.152h-23.711L-421.408-13.12z
			 M-391.83,36.649l47.894,31.112h47.832l19.168-10.952l90.227,126.918l-61.594,343.59l-265.911-0.328v-46.059l181.192-199.375
			v-99.225l-209.633,88.672l-32.399-36.359l111.754-125.82l72.73-40.814L-391.83,36.649z"/>
	</g>
	<path d="M-587.785-178.744v28.801h416.401v-28.801H-587.785z"/>
	<path d="M-577.47-323.555v122.04c161.279,0,231.559,0,392.84,0v-122.04H-577.47z M-548.671-294.755h335.24v64.439h-335.24V-294.755
		z"/>
	<path d="M-542.497-375.895v28.801h318.855v-28.801H-542.497z"/>
</g>
</svg>
