<?xml version="1.0" encoding="utf-8"?>
<!-- Generator: Adobe Illustrator 16.0.0, SVG Export Plug-In . SVG Version: 6.00 Build 0)  -->
<!DOCTYPE svg PUBLIC "-//W3C//DTD SVG 1.1//EN" "http://www.w3.org/Graphics/SVG/1.1/DTD/svg11.dtd">
<svg version="1.1" xmlns="http://www.w3.org/2000/svg" xmlns:xlink="http://www.w3.org/1999/xlink" x="0px" y="0px"
	 width="1356.973px" height="1356.973px" viewBox="-1064.556 -1403.199 1356.973 1356.973"
	 enable-background="new -1064.556 -1403.199 1356.973 1356.973" xml:space="preserve">
<g id="Background" display="none">
	<rect x="-1064.556" y="-1403.199" display="inline" fill="#9E9797" width="1356.973" height="1356.973"/>
</g>
<g id="emoji">
	<polygon fill="#4E4E4E" points="-355.556,-629.226 -420.056,-627.726 -448.056,-754.226 -327.056,-754.226 	"/>
	<polygon fill="#4E4E4E" points="-288.556,-310.921 -486.369,-310.921 -426.556,-579.726 -350.056,-579.726 	"/>
	<polygon fill="#4E4E4E" points="-236.8,-165.921 -531.369,-165.921 -531.369,-254.921 -238.77,-255.921 	"/>
	<g transform="translate(0,-952.36216)">
		<path d="M-438.589,358.809l-58.957,270.338h0.336l-5,28.859h229.785l-6-32.859l0.451,4l-58.193-269.936 M-415.251,385.879h54.973
			l53.076,242.907H-468.32L-415.251,385.879z"/>
	</g>
	<path d="M-550.989-271.941v122.04c161.279,0,168.559,0,329.84,0v-122.04H-550.989z M-522.19-243.141h272.24v64.439h-272.24
		V-243.141z"/>
	<path d="M-342.488-614.884l32-150.64h-153.66l31,150.64 M-431.002-738.724h87.369l-20.769,96.04h-48L-431.002-738.724z"/>
</g>
</svg>
