<?xml version="1.0" encoding="utf-8"?>
<!-- Generator: Adobe Illustrator 16.0.0, SVG Export Plug-In . SVG Version: 6.00 Build 0)  -->
<!DOCTYPE svg PUBLIC "-//W3C//DTD SVG 1.1//EN" "http://www.w3.org/Graphics/SVG/1.1/DTD/svg11.dtd">
<svg version="1.1" xmlns="http://www.w3.org/2000/svg" xmlns:xlink="http://www.w3.org/1999/xlink" x="0px" y="0px"
	 width="1356.973px" height="1356.973px" viewBox="-1064.556 -1403.199 1356.973 1356.973"
	 enable-background="new -1064.556 -1403.199 1356.973 1356.973" xml:space="preserve">
<g id="Background" display="none">
	<rect x="-1064.556" y="-1403.199" display="inline" fill="#9E9797" width="1356.973" height="1356.973"/>
</g>
<g id="emoji">
	<polygon fill="#4E4E4E" points="-209.897,-217.417 -552.702,-217.417 -552.702,-306.417 -212.19,-307.417 	"/>
	<polygon fill="#4E4E4E" points="-276.224,-420.24 -499.598,-420.24 -453.275,-862.24 -314.025,-862.24 	"/>
	<polygon fill="#4E4E4E" points="-322.822,-962.24 -456.107,-966.911 -488.051,-1091.041 -422.56,-1090.832 -429.056,-1145.226 
		-387.911,-1171.726 -340.056,-1143.726 -353.062,-1090.611 -278.771,-1090.374 	"/>
	<g transform="translate(0,-952.36216)">
		<path d="M-534.391,577.366v28.799h296.641v-28.799H-534.391z"/>
		<path d="M-574.283,629.206v121.48h14.4h362.026v-121.48H-574.283z M-545.482,658.006h318.827v63.879h-318.827V658.006z"/>
		<path d="M-583.057,773.725v28.801h393.975v-28.801H-583.057z"/>
		<path d="M-468.016,77.235l-50.422,477.089h15.998h248.739l-49.32-477.09L-468.016,77.235L-468.016,77.235z M-442.117,106.035
			h113.131l43.357,419.491h-200.813L-442.117,106.035z"/>
		<path d="M-526.605-179.354l11.004,32.963l49.635,148.747h159.795l60.637-181.71l-71.031,35.482l-69.076-34.178l-69.885,34.2
			L-526.605-179.354z M-385.708-145.942l69.188,34.223l21.666-10.822l-32.063,96.098h-118.305l-32.063-96.075l21.623,10.8
			L-385.708-145.942z"/>
		<path d="M-388.5-235.177c-14.749,0.59-29.293,6.498-40.432,17.572c-22.277,22.149-23.879,58.009-3.668,82.058l22.051-18.54
			c-10.752-12.792-9.918-31.326,1.934-43.11c11.854-11.784,30.44-12.531,43.202-1.732c12.76,10.8,15.066,29.208,5.377,42.817
			l23.467,16.695c18.219-25.59,13.744-61.201-10.236-81.495C-358.796-231.06-373.751-235.768-388.5-235.177z"/>
		<path d="M-490.357,25.396v28.8h208.577v-28.8H-490.357z"/>
	</g>
</g>
</svg>
