<?xml version="1.0" encoding="utf-8"?>
<!-- Generator: Adobe Illustrator 16.0.0, SVG Export Plug-In . SVG Version: 6.00 Build 0)  -->
<!DOCTYPE svg PUBLIC "-//W3C//DTD SVG 1.1//EN" "http://www.w3.org/Graphics/SVG/1.1/DTD/svg11.dtd">
<svg version="1.1" xmlns="http://www.w3.org/2000/svg" xmlns:xlink="http://www.w3.org/1999/xlink" x="0px" y="0px"
	 width="1356.973px" height="1356.973px" viewBox="-1064.556 -1403.199 1356.973 1356.973"
	 enable-background="new -1064.556 -1403.199 1356.973 1356.973" xml:space="preserve">
<g id="Background" display="none">
	<rect x="-1064.556" y="-1403.199" display="inline" fill="#9E9797" width="1356.973" height="1356.973"/>
</g>
<g id="emoji">
	<polygon fill="#FFFFFF" points="-199.284,-217.494 -572.854,-217.494 -572.854,-306.494 -201.782,-307.494 	"/>
	<polygon fill="#FFFFFF" points="-257.004,-360.228 -502.877,-360.228 -487.889,-653.058 -282.556,-653.058 	"/>
	<polygon fill="#FFFFFF" points="-236.056,-703.726 -536.056,-707.226 -536.056,-845.226 -479.056,-843.726 -476.556,-780.226 
		-418.556,-779.226 -412.556,-845.726 -353.056,-845.726 -351.056,-780.226 -299.056,-780.226 -292.056,-848.226 -236.056,-844.226 
			"/>
	<g transform="translate(0,-952.36216)">
		<path d="M-506.376,282.47l-16.357,326.5c121.111,0,151.221,0,272.33,0l-16.357-326.5H-506.376z M-478.769,311.271h184.4
			l13.928,268.898h-212.256L-478.769,311.271z"/>
		<path d="M-582.988,628.849v122.04c161.279,0,231.559,0,392.84,0v-122.04H-582.988z M-554.189,657.648h335.24v64.439h-335.24
			V657.648z"/>
		<path d="M-593.269,773.928v28.801h414.4v-28.801H-593.269z"/>
		<path d="M-552.433,90.571v170.02c140.91,0,190.82,0,331.73,0V90.571h-88.723v70.64h-31.793v-70.64h-89.701v70.64h-31.791v-70.64
			H-552.433z M-523.634,119.371h32.123v70.64h89.393v-70.64h32.1v70.64h89.393v-70.64h31.123v112.42h-274.131V119.371z"/>
	</g>
</g>
</svg>
