<?xml version="1.0" encoding="utf-8"?>
<!-- Generator: Adobe Illustrator 16.0.0, SVG Export Plug-In . SVG Version: 6.00 Build 0)  -->
<!DOCTYPE svg PUBLIC "-//W3C//DTD SVG 1.1//EN" "http://www.w3.org/Graphics/SVG/1.1/DTD/svg11.dtd">
<svg version="1.1" xmlns="http://www.w3.org/2000/svg" xmlns:xlink="http://www.w3.org/1999/xlink" x="0px" y="0px"
	 width="1356.973px" height="1356.973px" viewBox="-1064.556 -1403.199 1356.973 1356.973"
	 enable-background="new -1064.556 -1403.199 1356.973 1356.973" xml:space="preserve">
<g id="Background" display="none">
	<rect x="-1064.556" y="-1403.199" display="inline" fill="#9E9797" width="1356.973" height="1356.973"/>
</g>
<g id="emoji">
	<polygon fill="#242424" points="-199.199,-217.204 -572.769,-217.204 -572.769,-306.204 -201.698,-307.204 	"/>
	<polygon fill="#242424" points="-259.136,-412.235 -505.009,-412.235 -454.021,-705.065 -300.746,-705.065 	"/>
	<polygon fill="#242424" points="-313.368,-811.741 -446.653,-816.413 -491.889,-894.892 -453.222,-950.559 -419.601,-994.727 
		-379.105,-1064.892 -316.556,-972.892 -341.811,-907.779 -282.889,-867.226 	"/>
	<g transform="translate(0,-952.36216)">
		<path d="M-376.843-139.129l-132.166,198.27l54.631,95.625h154.957l50.221-87.885l-24.998-14.288l-41.939,73.373h-121.523
			l-37.508-65.655l98.213-147.331l43.65,66.127l-32.58,49.681l24.075,15.794l42.997-65.52L-376.843-139.129z"/>
		<path d="M-542.264,577.888v28.801h312.3v-28.801H-542.264z"/>
		<path d="M-583.461,629.728v120.861h14.4h380.385V629.728H-583.461z M-554.662,658.528h337.186v63.26h-337.186V658.528z"/>
		<path d="M-593.452,773.628v28.801h414.766v-28.801H-593.452z"/>
		<path d="M-466.214,229.341l-54.72,325.507h17.011h262.035l-53.528-325.507H-466.214z M-441.846,258.142h121.973l44.077,267.906
			h-211.117L-441.846,258.142z"/>
		<path d="M-488.894,177.5v28.801h219.578V177.5H-488.894z"/>
	</g>
</g>
</svg>
