<?xml version="1.0" encoding="utf-8"?>
<!-- Generator: Adobe Illustrator 16.0.0, SVG Export Plug-In . SVG Version: 6.00 Build 0)  -->
<!DOCTYPE svg PUBLIC "-//W3C//DTD SVG 1.1//EN" "http://www.w3.org/Graphics/SVG/1.1/DTD/svg11.dtd">
<svg version="1.1" xmlns="http://www.w3.org/2000/svg" xmlns:xlink="http://www.w3.org/1999/xlink" x="0px" y="0px" width="1552px"
	 height="1552px" viewBox="-1064.556 -1403.199 1552 1552" enable-background="new -1064.556 -1403.199 1552 1552"
	 xml:space="preserve">
<g id="Background" display="none">
	<rect x="-1064.556" y="-1403.199" display="inline" fill="#9E9797" width="1552" height="1552"/>
</g>
<g id="emoji">
	<polygon fill="#FFFFFF" points="-209.537,-717.276 -350.282,-712.9 -391.381,-796.226 -281.592,-955.226 -224.556,-882.726 
		-244.298,-811.247 -185.722,-771.559 	"/>
	<polygon fill="#FFFFFF" points="-167.684,-315.425 -403.731,-315.425 -352.831,-614.567 -218.454,-614.567 	"/>
	<polygon fill="#FFFFFF" points="-104.438,-125.78 -473.451,-121.172 -473.451,-210.172 -104.438,-205.78 	"/>
	<g transform="translate(0,-952.36216)">
		<path d="M-279.33-42.597l-132.166,198.271l54.631,95.625h154.957l50.221-87.885l-24.998-14.288l-41.939,73.373h-121.523
			l-37.508-65.655l98.213-147.33l43.65,66.127l-32.58,49.681l24.075,15.795l42.997-65.521L-279.33-42.597z"/>
		<path d="M-444.751,674.42v28.801h312.3V674.42H-444.751z"/>
		<path d="M-485.948,726.26v120.861h14.4h380.385V726.26H-485.948z M-457.148,755.061h337.186v63.26h-337.186V755.061z"/>
		<path d="M-495.938,870.16v28.801h414.766V870.16H-495.938z"/>
		<path d="M-368.701,325.874l-54.72,325.507h17.011h262.035l-53.528-325.507H-368.701z M-344.333,354.674h121.973l44.077,267.906
			H-389.4L-344.333,354.674z"/>
		<path d="M-391.381,274.033v28.801h219.578v-28.801H-391.381z"/>
	</g>
</g>
</svg>
