<?xml version="1.0" encoding="utf-8"?>
<!-- Generator: Adobe Illustrator 16.0.0, SVG Export Plug-In . SVG Version: 6.00 Build 0)  -->
<!DOCTYPE svg PUBLIC "-//W3C//DTD SVG 1.1//EN" "http://www.w3.org/Graphics/SVG/1.1/DTD/svg11.dtd">
<svg version="1.1" xmlns="http://www.w3.org/2000/svg" xmlns:xlink="http://www.w3.org/1999/xlink" x="0px" y="0px"
	 width="1356.973px" height="1356.973px" viewBox="-1064.556 -1403.199 1356.973 1356.973"
	 enable-background="new -1064.556 -1403.199 1356.973 1356.973" xml:space="preserve">
<g id="Background" display="none">
	<rect x="-1064.556" y="-1403.199" display="inline" fill="#9E9797" width="1552" height="1552"/>
</g>
<g id="emoji">
	<g>
		<polygon fill="#FFFFFF" points="-233.069,-214.739 -532.07,-214.739 -532.07,-303.739 -235.069,-304.739 		"/>
		<polygon fill="#FFFFFF" points="-288.07,-414.739 -483.07,-414.739 -442.631,-790.739 -321.07,-790.739 		"/>
		<g transform="translate(0,-952.36216)">
			<polygon fill="#FFFFFF" points="-327.07,50.623 -445.07,43.623 -473.351,-142.377 -288.07,-141.377 			"/>
			<path d="M-456.048,141.249l-43.537,414.721h15.998h215.031l-42.592-414.721H-456.048z M-430.105,170.049h92.947l36.674,357.12
				h-167.107L-430.105,170.049z"/>
			<path d="M-548.23,630.85v120.96h14.4h313.921V630.85H-548.23z M-519.431,659.649h270.721v63.359h-270.721V659.649z"/>
			<path d="M-559.99,774.85v28.8h347.841v-28.8H-559.99z"/>
			<path d="M-499.9-158.27l45.066,224.64h11.813h129.713l45.068-224.64H-499.9z M-464.755-129.471h161.369l-33.523,167.04h-94.32
				L-464.755-129.471z"/>
			<path d="M-463.472-210.111v28.8h158.805v-28.8H-463.472z"/>
			<path d="M-398.47-348.351v138.24h28.799v-138.24H-398.47z"/>
			<path d="M-453.191-293.631v28.8h138.24v-28.8H-453.191z"/>
			<path d="M-510.791,579.009v28.801h253.44v-28.801H-510.791z"/>
			<path d="M-473.351,89.409v28.8h178.561v-28.8H-473.351z"/>
		</g>
	</g>
</g>
</svg>
