<?xml version="1.0" encoding="utf-8"?>
<!-- Generator: Adobe Illustrator 16.0.0, SVG Export Plug-In . SVG Version: 6.00 Build 0)  -->
<!DOCTYPE svg PUBLIC "-//W3C//DTD SVG 1.1//EN" "http://www.w3.org/Graphics/SVG/1.1/DTD/svg11.dtd">
<svg version="1.1" xmlns="http://www.w3.org/2000/svg" xmlns:xlink="http://www.w3.org/1999/xlink" x="0px" y="0px" width="1552px"
	 height="1552px" viewBox="-1064.556 -1403.199 1552 1552" enable-background="new -1064.556 -1403.199 1552 1552"
	 xml:space="preserve">
<g id="Background" display="none">
	<rect x="-1064.556" y="-1403.199" display="inline" fill="#9E9797" width="1552" height="1552"/>
</g>
<g id="emoji">
	<polygon fill="#FFFFFF" points="-135.556,-119.226 -434.556,-119.226 -434.556,-208.226 -137.556,-209.226 	"/>
	<polygon fill="#FFFFFF" points="-190.556,-319.226 -385.556,-319.226 -345.117,-695.226 -223.556,-695.226 	"/>
	<g transform="translate(0,-952.36216)">
		<polygon fill="#FFFFFF" points="-229.556,146.137 -347.556,139.137 -375.836,-46.863 -190.556,-45.863 		"/>
		<path d="M-358.534,236.763l-43.537,414.721h15.998h215.031l-42.592-414.721H-358.534z M-332.591,265.563h92.947l36.674,357.12
			h-167.107L-332.591,265.563z"/>
		<path d="M-450.716,726.363v120.96h14.4h313.92v-120.96H-450.716z M-421.917,755.163h270.721v63.359h-270.721V755.163z"/>
		<path d="M-462.476,870.363v28.8h347.84v-28.8H-462.476z"/>
		<path d="M-402.386-62.757l45.066,224.64h11.813h129.713l45.068-224.64H-402.386z M-367.241-33.957h161.369l-33.523,167.04h-94.32
			L-367.241-33.957z"/>
		<path d="M-365.958-114.597v28.8h158.805v-28.8H-365.958z"/>
		<path d="M-300.956-252.837v138.24h28.799v-138.24H-300.956z"/>
		<path d="M-355.677-198.117v28.8h138.24v-28.8H-355.677z"/>
		<path d="M-413.276,674.522v28.801h253.439v-28.801H-413.276z"/>
		<path d="M-375.837,184.923v28.8h178.561v-28.8H-375.837z"/>
	</g>
</g>
</svg>
