<?xml version="1.0" encoding="utf-8"?>
<!-- Generator: Adobe Illustrator 16.0.0, SVG Export Plug-In . SVG Version: 6.00 Build 0)  -->
<!DOCTYPE svg PUBLIC "-//W3C//DTD SVG 1.1//EN" "http://www.w3.org/Graphics/SVG/1.1/DTD/svg11.dtd">
<svg version="1.1" xmlns="http://www.w3.org/2000/svg" xmlns:xlink="http://www.w3.org/1999/xlink" x="0px" y="0px" width="1552px"
	 height="1552px" viewBox="-1064.556 -1403.199 1552 1552" enable-background="new -1064.556 -1403.199 1552 1552"
	 xml:space="preserve">
<g id="Background" display="none">
	<rect x="-1064.556" y="-1403.199" display="inline" fill="#9E9797" width="1552" height="1552"/>
</g>
<g id="emoji">
	<polygon fill="#FFFFFF" points="-139.889,-270.427 -427.762,-270.427 -427.762,-320.226 -253.159,-493.559 -253.159,-566.892 
		-440.556,-487.559 -491.889,-540.226 -377.889,-668.892 -309.327,-711.278 -299.222,-748.892 -225.889,-719.559 -175.889,-723.559 
		-78.556,-588.892 	"/>
	<polygon fill="#FFFFFF" points="-97.564,-127.779 -466.577,-123.17 -466.577,-212.17 -97.564,-207.779 	"/>
	<g>
		<g transform="translate(0,-952.36216)">
			<path d="M-323.895,167.893l0.633,64.614l-60.457,34.403l-132.973,148.094l63.54,71.326l188.844-80.236v45.045l-181.194,181.396
				c0.177,63.469,0.45,3.035,0.45,66.834l319.106,1l65.527-343.729l-112.885-156.773l-36.605,20.152h-23.711L-323.895,167.893z
				 M-294.317,217.663l47.894,31.112h47.832l19.168-10.952l90.227,126.918l-61.594,307.59l-265.912-0.328v-28.059l181.193-181.375
				v-99.225l-209.633,88.672l-32.399-36.359l111.754-125.82l72.73-40.814L-294.317,217.663z"/>
		</g>
		<path d="M-490.271-82.73v28.801H-73.87V-82.73H-490.271z"/>
		<path d="M-479.956-227.542v122.04c161.279,0,231.559,0,392.84,0v-122.04H-479.956z M-451.157-198.742h335.24v64.439h-335.24
			V-198.742z"/>
	</g>
</g>
</svg>
