<?xml version="1.0" encoding="utf-8"?>
<!-- Generator: Adobe Illustrator 16.0.0, SVG Export Plug-In . SVG Version: 6.00 Build 0)  -->
<!DOCTYPE svg PUBLIC "-//W3C//DTD SVG 1.1//EN" "http://www.w3.org/Graphics/SVG/1.1/DTD/svg11.dtd">
<svg version="1.1" id="emoji" xmlns="http://www.w3.org/2000/svg" xmlns:xlink="http://www.w3.org/1999/xlink" x="0px" y="0px"
	 width="630px" height="630px" viewBox="446.111 -481.199 630 630" enable-background="new 446.111 -481.199 630 630"
	 xml:space="preserve">
<path fill="#FFFFFF" d="M743.056-228.857l-13.611,22.86c0,0-204.895,112.482-105.003,91.253
	c66.414-14.114,98.753,47.768,105.503,56.268c72.322,91.072-7.167,170.248-7.167,170.248s171.415-42.598,246.417-16.998
	c32.25,11.008,61.75,36.5,61.75,36.5s-72.581-138.391-70.167-176.5c1.454-22.948,23.831,48.255,84.667,42.998
	c5.204-0.45-44-55.333-44-55.333s6.68-44.813-1.323-142.001c-5.39-65.455-19.268-93.514-37.354-120.5
	c-34.963-52.166-129.137-74.833-129.137-74.833l-92.853,46.253L743.056-228.857z"/>
<g id="_xD83D__xDC34__1_">
	<path fill="none" stroke="#000000" stroke-width="24" stroke-linecap="round" stroke-linejoin="round" stroke-miterlimit="10" d="
		M1085.657,41.25"/>
	<path fill="none" stroke="#000000" stroke-width="24" stroke-linecap="round" stroke-linejoin="round" stroke-miterlimit="10" d="
		M1015.501-148.176"/>
	<path fill="none" stroke="#000000" stroke-width="24" stroke-linecap="round" stroke-linejoin="round" stroke-miterlimit="10" d="
		M711.486-100.233c0,0,99.391,79.513,0,219.826"/>
	<path fill="none" stroke="#000000" stroke-width="24" stroke-linecap="round" stroke-linejoin="round" stroke-miterlimit="10" d="
		M833.63-348.642c59.148,28.579,113.779,106.293,120.981,234.442c1.161,20.674,3.792,43.599,8.157,67.138
		c11.389,61.394,34.586,126.963,74.343,167.654"/>
	
		<path fill="#FFFFFF" stroke="#000000" stroke-width="24" stroke-linecap="round" stroke-linejoin="round" stroke-miterlimit="10" d="
		M743.056-228.857c5.848,98.222-108.743,113.421-140.313,120.438c-3.509,1.17-7.017,3.509-10.523,5.848l-24.555,25.725
		C564.156-73.339,558.311-71,552.463-71h-40.926c-14.032,0-26.895-9.354-31.571-22.217l-5.847-18.709
		c-3.51-9.354-2.34-18.708,3.508-26.895l102.896-170.718l54.957-54.955l-24.556-80.683c0,0,91.204-8.186,98.22,61.974
		c0,0,30.171,3.625,55.467,10.977"/>
	<path fill="none" stroke="#000000" stroke-width="24" stroke-linecap="round" stroke-linejoin="round" stroke-miterlimit="10" d="
		M927.804-192.608"/>
	<path fill="none" stroke="#000000" stroke-width="24" stroke-linecap="round" stroke-linejoin="round" stroke-miterlimit="10" d="
		M693.947-426.467"/>
	<path fill="none" stroke="#000000" stroke-width="24" stroke-linecap="round" stroke-linejoin="round" stroke-miterlimit="10" d="
		M987.439,98.545"/>
	<path fill="none" stroke="#000000" stroke-width="24" stroke-linecap="round" stroke-linejoin="round" stroke-miterlimit="10" d="
		M916.112-320.063"/>
	<circle cx="617.943" cy="-252.242" r="23.386"/>
</g>
<path fill="none" stroke="#000000" stroke-width="23" stroke-linecap="round" stroke-linejoin="round" stroke-miterlimit="10" d="
	M1041.79-13.559c-20.917-16.561-41.333-36.667-39.333-105.333c4.687-160.903-38-255.334-168.159-279.373
	c-14.26-2.633-69.687,26.039-69.687,26.039"/>
<path fill="none" stroke="#000000" stroke-width="23" stroke-linecap="round" stroke-linejoin="round" stroke-miterlimit="10" d="
	M711.486,119.593c0,0,167.091-55.791,266.626-8.791"/>
</svg>
