<?xml version="1.0" encoding="utf-8"?>
<!-- Generator: Adobe Illustrator 16.0.0, SVG Export Plug-In . SVG Version: 6.00 Build 0)  -->
<!DOCTYPE svg PUBLIC "-//W3C//DTD SVG 1.1//EN" "http://www.w3.org/Graphics/SVG/1.1/DTD/svg11.dtd">
<svg version="1.1" xmlns="http://www.w3.org/2000/svg" xmlns:xlink="http://www.w3.org/1999/xlink" x="0px" y="0px" width="1552px"
	 height="1552px" viewBox="-1064.556 -1403.199 1552 1552" enable-background="new -1064.556 -1403.199 1552 1552"
	 xml:space="preserve">
<g id="Background" display="none">
	<rect x="-1064.556" y="-1403.199" display="inline" fill="#9E9797" width="1552" height="1552"/>
</g>
<g id="emoji">
	<polygon fill="#FFFFFF" points="-254.529,-511.075 -325.021,-510.195 -346.556,-633.226 -231.556,-634.226 	"/>
	<polygon fill="#FFFFFF" points="-189.556,-210.035 -383.021,-210.035 -325.021,-466.226 -251.556,-464.226 	"/>
	<polygon fill="#FFFFFF" points="-138.556,-75.588 -433.515,-70.98 -433.515,-159.98 -138.556,-155.588 	"/>
	<g>
		<g transform="translate(0,-952.36216)">
			<path d="M-341.076,477.322l-58.957,247.338h0.336l-5,28.859h229.785l-6-32.859l0.451,4l-58.193-246.936 M-317.738,503.393h54.973
				l53.076,220.907h-161.117L-317.738,503.393z"/>
		</g>
		<path d="M-453.476-175.428v122.04c161.279,0,168.559,0,329.84,0v-122.04H-453.476z M-424.677-146.628h272.24v64.439h-272.24
			V-146.628z"/>
		<path d="M-244.975-496.371l32-150.64h-153.66l31,150.64 M-333.489-620.211h87.369l-20.769,96.04h-48L-333.489-620.211z"/>
	</g>
</g>
</svg>
